<?xml version="1.0" standalone="no"?>
<!DOCTYPE svg PUBLIC "-//W3C//DTD SVG 20010904//EN"
 "http://www.w3.org/TR/2001/REC-SVG-20010904/DTD/svg10.dtd">
<svg version="1.0" xmlns="http://www.w3.org/2000/svg"
 width="347.000000pt" height="347.000000pt" viewBox="0 0 347.000000 347.000000"
 preserveAspectRatio="xMidYMid meet">
<metadata>
Created by potrace 1.14, written by Peter Selinger 2001-2017
</metadata>
<g transform="translate(0.000000,347.000000) scale(0.100000,-0.100000)"
fill="#000000" stroke="none">
<path d="M610 2983 c0 -10 11 -78 24 -150 l23 -133 -144 0 c-117 0 -143 -3
-143 -14 0 -8 25 -164 55 -348 30 -183 57 -351 60 -373 3 -22 8 -51 11 -65 4
-14 8 -38 9 -55 2 -16 6 -43 9 -60 3 -16 13 -73 22 -125 8 -52 17 -106 20
-120 2 -14 13 -83 24 -155 12 -71 23 -137 25 -145 2 -8 7 -35 10 -60 3 -25 8
-52 10 -60 2 -8 6 -35 9 -60 3 -25 8 -56 11 -70 2 -13 7 -42 11 -65 3 -22 16
-105 30 -185 13 -80 27 -161 29 -180 3 -19 7 -47 11 -62 l6 -28 300 0 300 0
-6 27 c-3 16 -8 42 -11 58 -33 209 -55 347 -60 380 -3 22 -8 51 -11 65 -2 14
-7 39 -9 55 -3 17 -7 44 -10 60 -2 17 -7 47 -11 69 -3 21 -8 48 -10 60 -2 11
-11 66 -20 121 -8 55 -19 123 -25 150 -5 28 -23 136 -39 240 -17 105 -34 213
-39 240 -10 54 -17 97 -26 160 -4 22 -13 78 -21 125 -7 47 -14 91 -14 98 0 9
34 12 139 12 l138 0 18 -107 c9 -59 18 -116 20 -128 4 -36 17 -119 22 -140 5
-26 23 -133 27 -165 2 -14 13 -83 25 -155 12 -71 24 -142 26 -157 3 -16 7 -40
10 -55 10 -66 47 -290 50 -313 6 -38 24 -142 29 -170 3 -14 16 -99 31 -190 14
-91 33 -204 41 -252 l16 -88 300 0 300 0 -6 27 c-8 41 -25 142 -31 188 -3 22
-10 63 -15 90 -5 28 -12 68 -15 90 -3 22 -7 51 -10 65 -10 52 -24 137 -39 240
-3 19 -14 89 -25 155 -11 66 -22 134 -25 150 -3 17 -14 86 -26 155 -11 69 -23
141 -25 160 -3 19 -7 46 -10 60 -3 14 -10 54 -15 90 -18 116 -43 271 -54 325
-2 11 -7 44 -11 73 l-7 52 144 0 145 0 42 -262 c23 -145 44 -274 46 -288 2
-14 11 -68 20 -120 9 -52 18 -106 20 -120 2 -14 23 -135 45 -270 22 -135 45
-274 50 -310 5 -36 12 -76 14 -90 9 -50 58 -346 61 -373 2 -16 7 -42 10 -58
l7 -29 299 0 c164 0 299 1 299 3 0 2 -15 95 -34 208 -42 249 -43 253 -51 309
-4 25 -13 81 -20 125 -8 44 -17 98 -20 120 -3 22 -21 132 -40 245 -19 113 -37
223 -40 245 -3 22 -8 51 -10 65 -3 14 -7 39 -9 55 -15 92 -37 223 -40 245 -3
14 -18 108 -35 210 -16 102 -33 201 -36 220 -3 19 -11 68 -17 108 l-11 72
-147 0 -146 0 -19 123 c-10 67 -20 125 -21 130 -1 4 -2 16 -3 27 -1 20 -8 20
-896 20 -846 0 -895 -1 -895 -17z"/>
</g>
</svg>
